<svg xmlns="http://www.w3.org/2000/svg" xmlns:xlink="http://www.w3.org/1999/xlink" width="40" zoomAndPan="magnify" viewBox="0 0 40 40" height="40" preserveAspectRatio="xMidYMid meet" version="1.0"><defs><g/></defs><g fill="#ff3131" fill-opacity="1"><g transform="translate(3.055667, 24.750019)"><g><path d="M 11.84375 0.3125 C 9.96875 0.3125 8.296875 -0.113281 6.828125 -0.96875 C 5.359375 -1.832031 4.207031 -3.09375 3.375 -4.75 C 2.550781 -6.40625 2.140625 -8.390625 2.140625 -10.703125 C 2.140625 -13.023438 2.550781 -15.007812 3.375 -16.65625 C 4.207031 -18.3125 5.359375 -19.566406 6.828125 -20.421875 C 8.296875 -21.285156 9.96875 -21.71875 11.84375 -21.71875 C 13.84375 -21.71875 15.503906 -21.335938 16.828125 -20.578125 C 18.160156 -19.828125 19.117188 -18.691406 19.703125 -17.171875 L 18.09375 -16.09375 L 17.71875 -16.09375 C 17.132812 -17.320312 16.375 -18.191406 15.4375 -18.703125 C 14.5 -19.210938 13.300781 -19.46875 11.84375 -19.46875 C 10.488281 -19.46875 9.289062 -19.164062 8.25 -18.5625 C 7.207031 -17.96875 6.375 -17.015625 5.75 -15.703125 C 5.132812 -14.398438 4.828125 -12.734375 4.828125 -10.703125 C 4.828125 -8.671875 5.132812 -7.003906 5.75 -5.703125 C 6.375 -4.410156 7.207031 -3.460938 8.25 -2.859375 C 9.289062 -2.265625 10.488281 -1.96875 11.84375 -1.96875 C 13.394531 -1.96875 14.660156 -2.316406 15.640625 -3.015625 C 16.628906 -3.710938 17.363281 -4.84375 17.84375 -6.40625 L 18.203125 -6.40625 L 19.890625 -5.5625 C 19.378906 -3.664062 18.4375 -2.210938 17.0625 -1.203125 C 15.695312 -0.191406 13.957031 0.3125 11.84375 0.3125 Z M 11.84375 0.3125 "/></g></g></g><g fill="#ff3131" fill-opacity="1"><g transform="translate(2.425785, 24.750019)"><g><path d="M 11.265625 0.3125 C 9.460938 0.3125 7.875 -0.0976562 6.5 -0.921875 C 5.132812 -1.742188 4.066406 -2.976562 3.296875 -4.625 C 2.523438 -6.28125 2.140625 -8.304688 2.140625 -10.703125 C 2.140625 -13.109375 2.550781 -15.132812 3.375 -16.78125 C 4.195312 -18.4375 5.34375 -19.671875 6.8125 -20.484375 C 8.28125 -21.304688 9.96875 -21.71875 11.875 -21.71875 C 13.925781 -21.71875 15.609375 -21.347656 16.921875 -20.609375 C 18.242188 -19.878906 19.179688 -18.78125 19.734375 -17.3125 L 18.09375 -16.34375 L 17.71875 -16.34375 C 17.164062 -17.457031 16.414062 -18.253906 15.46875 -18.734375 C 14.519531 -19.222656 13.320312 -19.46875 11.875 -19.46875 C 7.175781 -19.46875 4.828125 -16.546875 4.828125 -10.703125 C 4.828125 -7.671875 5.414062 -5.457031 6.59375 -4.0625 C 7.78125 -2.664062 9.441406 -1.96875 11.578125 -1.96875 C 13.523438 -1.96875 14.984375 -2.410156 15.953125 -3.296875 C 16.929688 -4.179688 17.421875 -5.582031 17.421875 -7.5 L 17.421875 -9.390625 L 11.328125 -9.390625 L 11.328125 -11.40625 L 19.859375 -11.40625 L 19.859375 0 L 17.53125 0 L 17.53125 -2.875 L 17.234375 -2.9375 C 16.660156 -1.84375 15.867188 -1.023438 14.859375 -0.484375 C 13.847656 0.046875 12.648438 0.3125 11.265625 0.3125 Z M 11.265625 0.3125 "/></g></g></g><g fill="#38b6ff" fill-opacity="1"><g transform="translate(0.0000035, 24.750019)"><g><path d="M 5.5625 0 L 3.234375 0 L 3.234375 -21.421875 L 6.96875 -21.421875 L 13.46875 -3.28125 L 13.765625 -3.28125 L 20.265625 -21.421875 L 23.859375 -21.421875 L 23.859375 0 L 21.46875 0 L 21.46875 -17.46875 L 21.109375 -17.53125 L 14.78125 0 L 12.28125 0 L 5.9375 -17.53125 L 5.5625 -17.46875 Z M 5.5625 0 "/></g></g></g><g fill="#00bf63" fill-opacity="1"><g transform="translate(1.500003, 25.500019)"><g><path d="M 11.84375 0.3125 C 9.96875 0.3125 8.296875 -0.113281 6.828125 -0.96875 C 5.359375 -1.832031 4.207031 -3.09375 3.375 -4.75 C 2.550781 -6.40625 2.140625 -8.390625 2.140625 -10.703125 C 2.140625 -13.023438 2.550781 -15.007812 3.375 -16.65625 C 4.207031 -18.3125 5.359375 -19.566406 6.828125 -20.421875 C 8.296875 -21.285156 9.96875 -21.71875 11.84375 -21.71875 C 13.84375 -21.71875 15.503906 -21.335938 16.828125 -20.578125 C 18.160156 -19.828125 19.117188 -18.691406 19.703125 -17.171875 L 18.09375 -16.09375 L 17.71875 -16.09375 C 17.132812 -17.320312 16.375 -18.191406 15.4375 -18.703125 C 14.5 -19.210938 13.300781 -19.46875 11.84375 -19.46875 C 10.488281 -19.46875 9.289062 -19.164062 8.25 -18.5625 C 7.207031 -17.96875 6.375 -17.015625 5.75 -15.703125 C 5.132812 -14.398438 4.828125 -12.734375 4.828125 -10.703125 C 4.828125 -8.671875 5.132812 -7.003906 5.75 -5.703125 C 6.375 -4.410156 7.207031 -3.460938 8.25 -2.859375 C 9.289062 -2.265625 10.488281 -1.96875 11.84375 -1.96875 C 13.394531 -1.96875 14.660156 -2.316406 15.640625 -3.015625 C 16.628906 -3.710938 17.363281 -4.84375 17.84375 -6.40625 L 18.203125 -6.40625 L 19.890625 -5.5625 C 19.378906 -3.664062 18.4375 -2.210938 17.0625 -1.203125 C 15.695312 -0.191406 13.957031 0.3125 11.84375 0.3125 Z M 11.84375 0.3125 "/></g></g></g></svg>