<svg xmlns="http://www.w3.org/2000/svg"
    xmlns:xlink="http://www.w3.org/1999/xlink" width="30" zoomAndPan="magnify" viewBox="0 0 30 30" height="30" preserveAspectRatio="xMidYMid meet" version="1.0">
    <defs>
        <g/>
        <clipPath id="a63f184d90">
            <path d="M 0 0 L 36.339844 0 L 36.339844 36.339844 L 0 36.339844 Z M 0 0 " clip-rule="nonzero"/>
        </clipPath>
        <clipPath id="a84b2a4bee">
            <path d="M 18.171875 0 C 8.136719 0 0 8.136719 0 18.171875 C 0 28.207031 8.136719 36.339844 18.171875 36.339844 C 28.207031 36.339844 36.339844 28.207031 36.339844 18.171875 C 36.339844 8.136719 28.207031 0 18.171875 0 Z M 18.171875 0 " clip-rule="nonzero"/>
        </clipPath>
    </defs>
    <rect x="-81" width="972" fill="#ffffff" y="-80.999999" height="971.999992" fill-opacity="1"/>
    <rect x="-81" width="972" fill="#ffffff" y="-80.999999" height="971.999992" fill-opacity="1"/>
    <g clip-path="url(#a63f184d90)">
        <g clip-path="url(#a84b2a4bee)">
            <path fill="#d9d9d9" d="M 0 0 L 36.339844 0 L 36.339844 36.339844 L 0 36.339844 Z M 0 0 " fill-opacity="1" fill-rule="nonzero"/>
        </g>
    </g>
    <g fill="#ff3131" fill-opacity="1">
        <g transform="translate(8.406164, 27.750019)">
            <g>
                <path d="M 18.171875 -6.765625 C 17.898438 -4.515625 17.0625 -2.773438 15.65625 -1.546875 C 14.257812 -0.316406 12.398438 0.296875 10.078125 0.296875 C 7.554688 0.296875 5.535156 -0.601562 4.015625 -2.40625 C 2.503906 -4.21875 1.75 -6.640625 1.75 -9.671875 L 1.75 -11.71875 C 1.75 -13.695312 2.101562 -15.4375 2.8125 -16.9375 C 3.519531 -18.445312 4.519531 -19.601562 5.8125 -20.40625 C 7.113281 -21.21875 8.617188 -21.625 10.328125 -21.625 C 12.585938 -21.625 14.398438 -20.988281 15.765625 -19.71875 C 17.140625 -18.457031 17.941406 -16.707031 18.171875 -14.46875 L 15.34375 -14.46875 C 15.09375 -16.164062 14.5625 -17.394531 13.75 -18.15625 C 12.9375 -18.925781 11.796875 -19.3125 10.328125 -19.3125 C 8.523438 -19.3125 7.113281 -18.644531 6.09375 -17.3125 C 5.082031 -15.988281 4.578125 -14.097656 4.578125 -11.640625 L 4.578125 -9.578125 C 4.578125 -7.265625 5.054688 -5.421875 6.015625 -4.046875 C 6.984375 -2.679688 8.335938 -2 10.078125 -2 C 11.640625 -2 12.835938 -2.351562 13.671875 -3.0625 C 14.503906 -3.769531 15.0625 -5.003906 15.34375 -6.765625 Z M 18.171875 -6.765625 "/>
            </g>
        </g>
    </g>
    <g fill="#ff3131" fill-opacity="1">
        <g transform="translate(7.952062, 27.750019)">
            <g>
                <path d="M 18.21875 -2.796875 C 17.5 -1.765625 16.488281 -0.988281 15.1875 -0.46875 C 13.894531 0.0390625 12.390625 0.296875 10.671875 0.296875 C 8.941406 0.296875 7.398438 -0.109375 6.046875 -0.921875 C 4.703125 -1.742188 3.660156 -2.90625 2.921875 -4.40625 C 2.179688 -5.914062 1.800781 -7.660156 1.78125 -9.640625 L 1.78125 -11.5 C 1.78125 -14.707031 2.53125 -17.195312 4.03125 -18.96875 C 5.53125 -20.738281 7.640625 -21.625 10.359375 -21.625 C 12.585938 -21.625 14.378906 -21.050781 15.734375 -19.90625 C 17.085938 -18.769531 17.914062 -17.160156 18.21875 -15.078125 L 15.40625 -15.078125 C 14.882812 -17.898438 13.207031 -19.3125 10.375 -19.3125 C 8.488281 -19.3125 7.054688 -18.648438 6.078125 -17.328125 C 5.109375 -16.003906 4.617188 -14.085938 4.609375 -11.578125 L 4.609375 -9.828125 C 4.609375 -7.429688 5.15625 -5.523438 6.25 -4.109375 C 7.34375 -2.703125 8.820312 -2 10.6875 -2 C 11.75 -2 12.675781 -2.113281 13.46875 -2.34375 C 14.257812 -2.582031 14.910156 -2.984375 15.421875 -3.546875 L 15.421875 -8.328125 L 10.484375 -8.328125 L 10.484375 -10.625 L 18.21875 -10.625 Z M 18.21875 -2.796875 "/>
            </g>
        </g>
    </g>
    <g fill="#38b6ff" fill-opacity="1">
        <g transform="translate(5.075109, 27.750019)">
            <g>
                <path d="M 6.109375 -21.328125 L 13.078125 -3.921875 L 20.046875 -21.328125 L 23.703125 -21.328125 L 23.703125 0 L 20.890625 0 L 20.890625 -8.3125 L 21.15625 -17.265625 L 14.15625 0 L 12 0 L 5.015625 -17.234375 L 5.28125 -8.3125 L 5.28125 0 L 2.46875 0 L 2.46875 -21.328125 Z M 6.109375 -21.328125 "/>
            </g>
        </g>
    </g>
    <g fill="#00bf63" fill-opacity="1">
        <g transform="translate(6.8505, 28.500019)">
            <g>
                <path d="M 18.171875 -6.765625 C 17.898438 -4.515625 17.0625 -2.773438 15.65625 -1.546875 C 14.257812 -0.316406 12.398438 0.296875 10.078125 0.296875 C 7.554688 0.296875 5.535156 -0.601562 4.015625 -2.40625 C 2.503906 -4.21875 1.75 -6.640625 1.75 -9.671875 L 1.75 -11.71875 C 1.75 -13.695312 2.101562 -15.4375 2.8125 -16.9375 C 3.519531 -18.445312 4.519531 -19.601562 5.8125 -20.40625 C 7.113281 -21.21875 8.617188 -21.625 10.328125 -21.625 C 12.585938 -21.625 14.398438 -20.988281 15.765625 -19.71875 C 17.140625 -18.457031 17.941406 -16.707031 18.171875 -14.46875 L 15.34375 -14.46875 C 15.09375 -16.164062 14.5625 -17.394531 13.75 -18.15625 C 12.9375 -18.925781 11.796875 -19.3125 10.328125 -19.3125 C 8.523438 -19.3125 7.113281 -18.644531 6.09375 -17.3125 C 5.082031 -15.988281 4.578125 -14.097656 4.578125 -11.640625 L 4.578125 -9.578125 C 4.578125 -7.265625 5.054688 -5.421875 6.015625 -4.046875 C 6.984375 -2.679688 8.335938 -2 10.078125 -2 C 11.640625 -2 12.835938 -2.351562 13.671875 -3.0625 C 14.503906 -3.769531 15.0625 -5.003906 15.34375 -6.765625 Z M 18.171875 -6.765625 "/>
            </g>
        </g>
    </g>
</svg>